<svg width="69" height="44" viewBox="0 0 69 44" fill="none" xmlns="http://www.w3.org/2000/svg">
<path d="M59.1713 11.6848L51.9009 37.6496C61.6609 31.1472 68.1713 21.776 68.1713 21.776C68.1713 21.776 64.7585 16.864 59.1713 11.6848Z" fill="url(#paint0_linear)"/>
<path d="M8.712 11.9536C3.296 17.032 0 21.776 0 21.776C0 21.776 5.9152 30.2896 14.92 36.7184L8.712 11.9536Z" fill="url(#paint1_linear)"/>
<path d="M34.045 12.9344C34.413 12.9344 34.7778 12.9552 35.1346 12.9968C34.725 10.864 34.3906 8.82881 34.1202 6.76801H33.9826C33.6194 8.82401 33.2146 10.8656 32.7314 13.024C33.1602 12.9648 33.5986 12.9344 34.045 12.9344Z" fill="url(#paint2_linear)"/>
<path d="M34.0449 32.1232C31.8577 32.1232 29.8417 31.3904 28.2273 30.1584L24.9985 42.1072C27.8929 43.1296 30.9393 43.7472 34.0865 43.7472C36.8209 43.7472 39.4785 43.2816 42.0257 42.4896L39.1873 30.6304C37.7009 31.5744 35.9361 32.1232 34.0449 32.1232Z" fill="url(#paint3_linear)"/>
<path d="M24.4495 22.4896C24.4495 20.0896 25.3311 17.896 26.7871 16.2144L31.0287 0C24.6271 0.792 18.7343 3.9488 13.8447 7.6256L17.5103 23.4416C18.8943 29.3264 20.1407 35.2096 20.9711 39.7632H21.1103C21.8287 35.3392 23.1615 30.104 24.6447 24.4144C24.5167 23.792 24.4495 23.1488 24.4495 22.4896Z" fill="url(#paint4_linear)"/>
<path d="M37.5601 0.0512085L41.4241 16.3584C42.8065 18.0208 43.6385 20.1584 43.6385 22.4896C43.6385 23.24 43.5521 23.9696 43.3889 24.6704C44.6017 29.8848 45.7265 35.0608 46.3713 39.6912H46.5105C47.4801 34.5072 48.7953 29.2544 50.2481 23.3696L54.3217 7.61761C49.5377 4.02401 43.7985 0.924809 37.5601 0.0512085Z" fill="url(#paint5_linear)"/>
<path d="M34.0865 14.7024C29.7633 14.7024 26.2593 18.2064 26.2593 22.5296C26.2593 26.8528 29.7633 30.3568 34.0865 30.3568C38.4097 30.3568 41.9137 26.8528 41.9137 22.5296C41.9137 18.2064 38.4081 14.7024 34.0865 14.7024ZM31.0961 27.3264V17.7104L39.4225 22.5184L31.0961 27.3264Z" fill="url(#paint6_linear)"/>
<defs>
<linearGradient id="paint0_linear" x1="62.5307" y1="-14.1031" x2="59.2384" y2="43.7263" gradientUnits="userSpaceOnUse">
<stop stop-color="#8A2387"/>
<stop offset="0.5" stop-color="#E94057"/>
<stop offset="1" stop-color="#F27121"/>
</linearGradient>
<linearGradient id="paint1_linear" x1="10.0983" y1="-17.0881" x2="6.806" y2="40.7413" gradientUnits="userSpaceOnUse">
<stop stop-color="#8A2387"/>
<stop offset="0.5" stop-color="#E94057"/>
<stop offset="1" stop-color="#F27121"/>
</linearGradient>
<linearGradient id="paint2_linear" x1="34.506" y1="2.94125" x2="33.9426" y2="12.8379" gradientUnits="userSpaceOnUse">
<stop stop-color="#8A2387"/>
<stop offset="0.5" stop-color="#E94057"/>
<stop offset="1" stop-color="#F27121"/>
</linearGradient>
<linearGradient id="paint3_linear" x1="34.6557" y1="22.2023" x2="33.4598" y2="43.2088" gradientUnits="userSpaceOnUse">
<stop stop-color="#8A2387"/>
<stop offset="0.5" stop-color="#E94057"/>
<stop offset="1" stop-color="#F27121"/>
</linearGradient>
<linearGradient id="paint4_linear" x1="23.5813" y1="-16.3205" x2="20.289" y2="41.5088" gradientUnits="userSpaceOnUse">
<stop stop-color="#8A2387"/>
<stop offset="0.5" stop-color="#E94057"/>
<stop offset="1" stop-color="#F27121"/>
</linearGradient>
<linearGradient id="paint5_linear" x1="47.0125" y1="-14.9866" x2="43.7203" y2="42.8428" gradientUnits="userSpaceOnUse">
<stop stop-color="#8A2387"/>
<stop offset="0.5" stop-color="#E94057"/>
<stop offset="1" stop-color="#F27121"/>
</linearGradient>
<linearGradient id="paint6_linear" x1="33.6568" y1="6.73745" x2="34.3725" y2="33.0756" gradientUnits="userSpaceOnUse">
<stop stop-color="#8A2387"/>
<stop offset="0.5" stop-color="#E94057"/>
<stop offset="1" stop-color="#F27121"/>
</linearGradient>
</defs>
</svg>
